:FULLY-SPECIFIED
:FORCE-ALL-JOINTS-BE-3DOF
:DEGREES
1020
root 0.245668 13.5564 -35.3871 12.3101 -28.1303 -17.6867
lfemur -70.0212 35.967 -4.04939
ltibia 82.172 -0 0
lfoot -12.7273 -8.70376 -0.00382071
ltoes -5.62181 0 0
rfemur 10.2441 -8.76008 8.75021
rtibia 36.3011 -0 0
rfoot -22.6672 -26.1669 -3.2473e-05
rtoes -31.5021 0 0
lowerback 10.2684 -0.881462 5.47774
upperback -1.83318 0.0532527 8.19041
thorax -7.7751 -0.0521092 5.68843
lowerneck -4.77801 8.32357 3.41679
upperneck 7.88345 10.9687 -1.06791
head 3.6735 5.48974 -0.404446
lclavicle -5.7573e-14 1.55052e-14 0
lhumerus 83.0411 -13.0975 27.8596
lradius 94.2903 -0 0
lwrist 10.3223 0 0
lhand -35.467 31.3984 0.0206553
lfingers 7.12502 -0 0
lthumb -8.59539 61.2011 0.0202436
rclavicle -5.7573e-14 1.55052e-14 0
rhumerus -77.5458 22.9512 -95.0696
rradius 111.975 -0 0
rwrist -63.2148 0 0
rhand -10.1533 -25.2015 -0.000605617
rfingers 7.12502 -0 0
rthumb 15.8361 -54.5737 -0.000560565
1021
root 0.245029 13.5526 -35.3791 12.3094 -28.1364 -17.6789
lfemur -70.0471 36.0006 -4.07582
ltibia 82.2485 -0 0
lfoot -12.8025 -8.67604 -0.00327488
ltoes -5.70027 0 0
rfemur 10.281 -8.75008 8.72083
rtibia 36.2747 -0 0
rfoot -22.664 -26.1724 -2.7834e-05
rtoes -31.4883 0 0
lowerback 10.2487 -0.873006 5.44934
upperback -1.8417 0.0591243 8.17942
thorax -7.77309 -0.0480809 5.69094
lowerneck -4.79294 8.32364 3.41545
upperneck 7.89138 10.9675 -1.05651
head 3.67823 5.48947 -0.399729
lclavicle -5.7573e-14 1.55052e-14 0
lhumerus 83.0681 -12.01 27.9795
lradius 94.2516 -0 0
lwrist 10.0456 0 0
lhand -35.5375 31.2387 0.0177042
lfingers 7.12502 -0 0
lthumb -8.66346 61.0389 0.0173513
rclavicle -5.7573e-14 1.55052e-14 0
rhumerus -77.5558 22.9682 -95.0794
rradius 111.961 -0 0
rwrist -63.2253 0 0
rhand -10.1661 -25.1759 -0.0005191
rfingers 7.12502 -0 0
rthumb 15.8237 -54.5491 -0.000480484
1022
root 0.24439 13.5487 -35.371 12.3087 -28.1425 -17.6712
lfemur -70.0731 36.0341 -4.10228
ltibia 82.3251 -0 0
lfoot -12.8778 -8.64833 -0.00269266
ltoes -5.77872 0 0
rfemur 10.3178 -8.74005 8.69145
rtibia 36.2484 -0 0
rfoot -22.6608 -26.178 -2.28858e-05
rtoes -31.4744 0 0
lowerback 10.229 -0.864559 5.42093
upperback -1.85022 0.0649942 8.16843
thorax -7.77107 -0.0440527 5.69344
lowerneck -4.80788 8.32371 3.4141
upperneck 7.89932 10.9664 -1.04511
head 3.68296 5.48921 -0.395012
lclavicle -5.7573e-14 1.55052e-14 0
lhumerus 83.0974 -10.9226 28.0994
lradius 94.213 -0 0
lwrist 9.76887 0 0
lhand -35.6081 31.0789 0.0145564
lfingers 7.12502 -0 0
lthumb -8.73151 60.8767 0.0142663
rclavicle -5.7573e-14 1.55052e-14 0
rhumerus -77.5658 22.9851 -95.0893
rradius 111.947 -0 0
rwrist -63.2358 0 0
rhand -10.179 -25.1502 -0.000426815
rfingers 7.12502 -0 0
rthumb 15.8113 -54.5245 -0.000395064
1023
root 0.243751 13.5449 -35.363 12.308 -28.1485 -17.6634
lfemur -70.0991 36.0677 -4.12878
ltibia 82.4016 -0 0
lfoot -12.953 -8.62061 -0.00207407
ltoes -5.85718 0 0
rfemur 10.3547 -8.73001 8.66208
rtibia 36.2221 -0 0
rfoot -22.6575 -26.1835 -1.76282e-05
rtoes -31.4606 0 0
lowerback 10.2094 -0.856121 5.39252
upperback -1.85874 0.0708624 8.15744
thorax -7.76906 -0.0400245 5.69595
lowerneck -4.82282 8.32378 3.41276
upperneck 7.90725 10.9652 -1.03371
head 3.68769 5.48894 -0.390295
lclavicle -5.7573e-14 1.55052e-14 0
lhumerus 83.1288 -9.83517 28.2195
lradius 94.1743 -0 0
lwrist 9.49216 0 0
lhand -35.6786 30.9192 0.0112121
lfingers 7.12502 -0 0
lthumb -8.79956 60.7145 0.0109886
rclavicle -5.7573e-14 1.55052e-14 0
rhumerus -77.5758 23.0021 -95.0992
rradius 111.932 -0 0
rwrist -63.2463 0 0
rhand -10.1919 -25.1246 -0.000328763
rfingers 7.12502 -0 0
rthumb 15.7988 -54.4998 -0.000304306
1024
root 0.243113 13.541 -35.355 12.3074 -28.1546 -17.6556
lfemur -70.1251 36.1012 -4.1553
ltibia 82.4781 -0 0
lfoot -13.0282 -8.5929 -0.00141909
ltoes -5.93563 0 0
rfemur 10.3915 -8.71994 8.63271
rtibia 36.1958 -0 0
rfoot -22.6543 -26.189 -1.20614e-05
rtoes -31.4467 0 0
lowerback 10.1897 -0.847694 5.36411
upperback -1.86727 0.0767291 8.14645
thorax -7.76704 -0.0359965 5.69845
lowerneck -4.83776 8.32385 3.41141
upperneck 7.91519 10.964 -1.02231
head 3.69241 5.48867 -0.385578
lclavicle -5.7573e-14 1.55052e-14 0
lhumerus 83.1624 -8.74785 28.3398
lradius 94.1357 -0 0
lwrist 9.21545 0 0
lhand -35.749 30.7594 0.0076712
lfingers 7.12502 -0 0
lthumb -8.86759 60.5523 0.00751829
rclavicle -5.7573e-14 1.55052e-14 0
rhumerus -77.5858 23.019 -95.1091
rradius 111.918 -0 0
rwrist -63.2568 0 0
rhand -10.2048 -25.099 -0.000224943
rfingers 7.12502 -0 0
rthumb 15.7864 -54.4752 -0.000208209
1025
root 0.242474 13.5372 -35.347 12.3067 -28.1607 -17.6478
lfemur -70.1511 36.1348 -4.18186
ltibia 82.5547 -0 0
lfoot -13.1034 -8.56518 -0.000727734
ltoes -6.01409 0 0
rfemur 10.4283 -8.70986 8.60336
rtibia 36.1694 -0 0
rfoot -22.6511 -26.1945 -6.18534e-06
rtoes -31.4329 0 0
lowerback 10.17 -0.839276 5.3357
upperback -1.87579 0.082594 8.13545
thorax -7.76503 -0.0319686 5.70096
lowerneck -4.85269 8.32392 3.41007
upperneck 7.92313 10.9629 -1.01091
head 3.69714 5.4884 -0.380861
lclavicle -5.7573e-14 1.55052e-14 0
lhumerus 83.1983 -7.66059 28.4605
lradius 94.097 -0 0
lwrist 8.93874 0 0
lhand -35.8195 30.5997 0.00393383
lfingers 7.12502 -0 0
lthumb -8.93562 60.3901 0.00385542
rclavicle -5.7573e-14 1.55052e-14 0
rhumerus -77.5958 23.036 -95.119
rradius 111.904 -0 0
rwrist -63.2673 0 0
rhand -10.2177 -25.0733 -0.000115355
rfingers 7.12502 -0 0
rthumb 15.774 -54.4505 -0.000106774
1026
root 0.241835 13.5333 -35.339 372.306 -28.1668 342.36
lfemur -70.1772 36.1683 -4.20844
ltibia 82.6312 0 0
lfoot -13.1786 -8.53747 0
ltoes -6.09254 0 0
rfemur 10.4651 -8.69976 8.57401
rtibia 36.1431 0 0
rfoot -22.6479 -26.2 0
rtoes -31.419 0 0
lowerback 10.1503 -0.830868 5.30728
upperback -1.88432 0.0884574 8.12446
thorax -7.76301 -0.0279407 5.70346
lowerneck -4.86763 8.32399 3.40872
upperneck 7.93106 10.9617 -0.999513
head 3.70187 5.48813 -0.376144
lclavicle -5.7573e-14 1.55052e-14 0
lhumerus 83.2364 -6.57342 28.5815
lradius 94.0584 0 0
lwrist 8.66203 0 0
lhand -35.89 30.44 0
lfingers 7.12502 0 0
lthumb -9.00363 60.2279 0
rclavicle -5.7573e-14 1.55052e-14 0
rhumerus -77.6058 23.0529 -95.1289
rradius 111.89 0 0
rwrist -63.2778 0 0
rhand -10.2306 -25.0477 0
rfingers 7.12502 0 0
rthumb 15.7616 -54.4259 0
1027
root 0.241781 13.5298 -35.3349 12.3233 -28.1788 -17.6131
lfemur -70.2025 36.1279 -4.21823
ltibia 82.6921 -0 0
lfoot -13.2479 -8.2675 -0.00655522
ltoes -6.4991 0 0
rfemur 10.4418 -8.70547 8.53
rtibia 36.1532 -0 0
rfoot -22.6025 -26.2406 -0.000643512
rtoes -31.49 0 0
lowerback 10.1835 -0.816408 5.28296
upperback -1.87588 0.105785 8.09512
thorax -7.77356 -0.0187845 5.68248
lowerneck -4.88063 8.31668 3.39712
upperneck 7.89704 10.9513 -0.991678
head 3.69092 5.48294 -0.372651
lclavicle 7.56873e-14 7.25564e-14 0
lhumerus 83.2529 -6.35187 28.7579
lradius 93.8624 -0 0
lwrist 8.74069 0 0
lhand -35.8681 30.4618 0.000167079
lfingers 7.12502 -0 0
lthumb -8.98247 60.2506 0.000167606
rclavicle 7.56873e-14 7.25564e-14 0
rhumerus -77.5913 23.04 -95.1384
rradius 111.868 -0 0
rwrist -63.3475 0 0
rhand -10.2131 -25.0854 -0.000230989
rfingers 7.12502 -0 0
rthumb 15.7785 -54.4623 -0.000214351
1028
root 0.241727 13.5263 -35.3308 12.3406 -28.1908 -17.5862
lfemur -70.2277 36.0875 -4.22798
ltibia 82.7529 -0 0
lfoot -13.3173 -7.99752 -0.0127836
ltoes -6.90566 0 0
rfemur 10.4184 -8.7112 8.48598
rtibia 36.1634 -0 0
rfoot -22.5571 -26.2812 -0.00125485
rtoes -31.5611 0 0
lowerback 10.2166 -0.801933 5.25865
upperback -1.86744 0.123117 8.06577
thorax -7.78412 -0.00963207 5.66151
lowerneck -4.89363 8.30937 3.38552
upperneck 7.86301 10.9409 -0.983836
head 3.67997 5.47776 -0.369157
lclavicle 7.56873e-14 7.25564e-14 0
lhumerus 83.2701 -6.13036 28.9343
lradius 93.6664 -0 0
lwrist 8.81934 0 0
lhand -35.8461 30.4837 0.000325805
lfingers 7.12502 -0 0
lthumb -8.96131 60.2733 0.000326832
rclavicle 7.56873e-14 7.25564e-14 0
rhumerus -77.5768 23.0271 -95.1479
rradius 111.847 -0 0
rwrist -63.4172 0 0
rhand -10.1955 -25.1231 -0.000450428
rfingers 7.12502 -0 0
rthumb 15.7954 -54.4986 -0.000417985
1029
root 0.241672 13.5228 -35.3266 12.3578 -28.2028 -17.5593
lfemur -70.2529 36.0471 -4.23772
ltibia 82.8138 -0 0
lfoot -13.3867 -7.72753 -0.0186851
ltoes -7.31221 0 0
rfemur 10.3951 -8.71694 8.44197
rtibia 36.1735 -0 0
rfoot -22.5117 -26.3218 -0.00183402
rtoes -31.6321 0 0
lowerback 10.2497 -0.787445 5.23435
upperback -1.85901 0.140453 8.03644
thorax -7.79468 -0.000483547 5.64053
lowerneck -4.90663 8.30206 3.37393
upperneck 7.82899 10.9305 -0.975989
head 3.66901 5.47257 -0.365661
lclavicle 7.56873e-14 7.25564e-14 0
lhumerus 83.2879 -5.90891 29.1106
lradius 93.4704 -0 0
lwrist 8.898 0 0
lhand -35.8242 30.5055 0.000476177
lfingers 7.12502 -0 0
lthumb -8.94015 60.296 0.000477678
rclavicle 7.56873e-14 7.25564e-14 0
rhumerus -77.5623 23.0142 -95.1574
rradius 111.825 -0 0
rwrist -63.4868 0 0
rhand -10.178 -25.1609 -0.000658319
rfingers 7.12502 -0 0
rthumb 15.8123 -54.535 -0.000610902
1030
root 0.241618 13.5193 -35.3225 12.3751 -28.2148 -17.5324
lfemur -70.2781 36.0067 -4.24742
ltibia 82.8746 -0 0
lfoot -13.4561 -7.45754 -0.0242595
ltoes -7.71877 0 0
rfemur 10.3718 -8.7227 8.39797
rtibia 36.1837 -0 0
rfoot -22.4664 -26.3625 -0.00238102
rtoes -31.7031 0 0
lowerback 10.2829 -0.772942 5.21005
upperback -1.8506 0.157794 8.0071
thorax -7.80525 0.0086611 5.61955
lowerneck -4.91963 8.29474 3.36234
upperneck 7.79497 10.9201 -0.968135
head 3.65806 5.46739 -0.362165
lclavicle 7.56873e-14 7.25564e-14 0
lhumerus 83.3065 -5.68752 29.287
lradius 93.2745 -0 0
lwrist 8.97665 0 0
lhand -35.8023 30.5273 0.000618195
lfingers 7.12502 -0 0
lthumb -8.919 60.3187 0.000620143
rclavicle 7.56873e-14 7.25564e-14 0
rhumerus -77.5479 23.0013 -95.1669
rradius 111.803 -0 0
rwrist -63.5565 0 0
rhand -10.1604 -25.1986 -0.000854662
rfingers 7.12502 -0 0
rthumb 15.8292 -54.5713 -0.000793102
1031
root 0.241564 13.5158 -35.3184 12.3924 -28.2268 -17.5055
lfemur -70.3033 35.9662 -4.2571
ltibia 82.9355 -0 0
lfoot -13.5256 -7.18754 -0.0295066
ltoes -8.12533 0 0
rfemur 10.3485 -8.72848 8.35396
rtibia 36.1938 -0 0
rfoot -22.421 -26.4031 -0.00289584
rtoes -31.7741 0 0
lowerback 10.316 -0.758426 5.18577
upperback -1.84219 0.175139 7.97776
thorax -7.81582 0.0178019 5.59857
lowerneck -4.93263 8.28742 3.35075
upperneck 7.76094 10.9097 -0.960276
head 3.64711 5.46221 -0.358668
lclavicle 7.56873e-14 7.25564e-14 0
lhumerus 83.3257 -5.46619 29.4634
lradius 93.0785 -0 0
lwrist 9.05531 0 0
lhand -35.7804 30.5491 0.00075186
lfingers 7.12502 -0 0
lthumb -8.89784 60.3414 0.000754229
rclavicle 7.56873e-14 7.25564e-14 0
rhumerus -77.5334 22.9884 -95.1764
rradius 111.781 -0 0
rwrist -63.6262 0 0
rhand -10.1429 -25.2363 -0.00103945
rfingers 7.12502 -0 0
rthumb 15.8461 -54.6077 -0.000964585
